<svg xmlns="http://www.w3.org/2000/svg" viewBox="0 0 512 512" role="img" aria-label="JobFlow">
  <rect width="512" height="512" rx="112" fill="#3b82f6"/>
  <g fill="#ffffff" transform="translate(256 256) rotate(-8) translate(-256 -256)">
    <path d="M168 142c0-8 6-14 14-14h44c8 0 14 6 14 14v18c0 8-6 14-14 14h-44c-8 0-14-6-14-14v-18z"/>
    <path d="M182 174c-6 0-10 5-10 11v152c0 28 22 50 50 50 12 0 23-4 32-12 6-5 15-4 20 2 5 6 4 15-2 20-14 12-32 18-50 18-46 0-82-36-82-82V185c0-6-5-11-11-11h-8c-8 0-14-6-14-14v-18c0-8 6-14 14-14h8c6 0 11-5 11-11z"/>
    <path d="M240 228h92c8 0 14 6 14 14s-6 14-14 14h-58l48 34c6 4 8 12 4 18-4 6-12 8-18 4l-64-46v66c0 8-6 14-14 14s-14-6-14-14V242c0-8 6-14 14-14z"/>
  </g>
</svg>
